<?xml version="1.0" encoding="UTF-8"?>
<svg width="500px" height="500px" viewBox="0 0 500 500" version="1.1" xmlns="http://www.w3.org/2000/svg" xmlns:xlink="http://www.w3.org/1999/xlink">
    <!-- Generator: Sketch 51 (57462) - http://www.bohemiancoding.com/sketch -->
    <title>Artboard</title>
    <desc>Created with Sketch.</desc>
    <defs></defs>
    <g id="Artboard" stroke="none" stroke-width="1" fill="none" fill-rule="evenodd">
        <g id="back" transform="translate(69.000000, 100.000000)" fill="#000000" fill-rule="nonzero">
            <path d="M341.651484,122.081732 L342.216557,122.205476 L99.9826912,122.205476 L176.132171,45.8056929 C179.861064,42.0757123 181.906511,37.0228556 181.906511,31.7195658 C181.906511,26.416276 179.861064,21.3987745 176.132171,17.6599552 L164.283295,5.79237101 C160.557345,2.06239049 155.592354,0 150.297737,0 C145.000177,0 140.032243,2.04765913 136.306293,5.77763965 L5.77147597,136.441863 C2.03081011,140.186574 -0.0146365946,145.174613 7.88493679e-05,150.480849 C-0.0146365946,155.816548 2.03081011,160.807533 5.77147597,164.546352 L136.306293,295.22236 C140.032243,298.949395 144.997234,301 150.297737,301 C155.592354,301 160.557345,298.946448 164.283295,295.22236 L176.132171,283.354776 C179.861064,279.630688 181.906511,274.657381 181.906511,269.354091 C181.906511,264.053747 179.861064,259.342658 176.132171,255.615624 L99.1233093,178.788632 L341.922248,178.788632 C352.832278,178.788632 362,169.375292 362,158.459354 L362,141.674442 C362,130.758504 352.561514,122.081732 341.651484,122.081732 Z" id="Shape"></path>
        </g>
    </g>
</svg>