<?xml version="1.0" encoding="UTF-8"?>
<svg width="14px" height="14px" viewBox="0 0 14 14" version="1.1" xmlns="http://www.w3.org/2000/svg" xmlns:xlink="http://www.w3.org/1999/xlink">
    <!-- Generator: Sketch 51 (57462) - http://www.bohemiancoding.com/sketch -->
    <title>ㄊ</title>
    <desc>Created with Sketch.</desc>
    <defs></defs>
    <g id="ㄊ" stroke="none" stroke-width="1" fill="none" fill-rule="evenodd">
        <path d="M11.9041354,14 C12.015156,14.3493603 12.0688125,14.7692101 12.0688125,15.2725256 C12.0688125,18.0908295 10.3103835,18.958 6.67308523,18.958 C5.51685795,18.958 3.54163636,18.7652955 2,18.3557983 L2.50584943,15.8265511 C3.90295739,16.1637841 5.32415341,16.3083125 6.35994034,16.3083125 C8.16654545,16.3083125 8.8891875,16.2360483 8.8891875,15.4652301 C8.8891875,15.0075568 8.67239489,14.8871165 7.97384091,14.8148523 C6.64899716,14.6944119 6.43220455,14.6703239 4.98692045,14.5257955 C4.18523093,14.4407678 3.55504791,14.3128635 3.12725891,14 L1.75,14 C0.784875,14 0,13.215125 0,12.25 L0,1.75 C0,0.784875 0.784875,0 1.75,0 L12.25,0 C13.215125,0 14,0.784875 14,1.75 L14,12.25 C14,13.215125 13.215125,14 12.25,14 L11.9041354,14 Z M11.9041354,14 C11.5688381,12.9448838 10.7103102,12.532719 9.22642045,12.4060455 C8.35925,12.3337813 7.87748864,12.2856051 6.3117642,12.1169886 C6.09497159,12.0929006 5.92635511,11.900196 5.92635511,11.6352273 C5.92635511,11.2979943 6.19132386,11.1293778 6.43220455,10.9848494 L6.79352557,10.9848494 C10.0213267,10.9848494 11.5870511,9.4913892 11.5870511,7.25119886 L11.5870511,5.83000284 C11.5629631,5.30006534 11.4666108,4.77012784 11.2739062,4.31245455 L12.4542216,3.87886932 L12.4542216,2.24088068 L8.79283523,2.24088068 C8.21472159,2.09635227 7.56434375,2 6.79352557,2 C3.34893182,2 2.04817614,3.46937216 2,5.83000284 L2,7.25119886 C2,8.64830682 2.48176136,9.66000568 3.49346023,10.2622074 C2.91534659,10.840321 2.48176136,11.4666108 2.48176136,12.4060455 C2.48176136,13.2061097 2.70670915,13.6924309 3.12725891,14 L11.9041354,14 Z M6.79352557,8.23880966 C5.66138636,8.23880966 5.22780114,7.87748864 5.22780114,7.08258239 L5.22780114,5.97453125 C5.22780114,5.20371307 5.6372983,4.74603977 6.79352557,4.74603977 C7.94975284,4.74603977 8.35925,5.20371307 8.35925,5.97453125 L8.35925,7.08258239 C8.35925,7.87748864 7.92566477,8.23880966 6.79352557,8.23880966 Z" id="Combined-Shape" fill="#000000" fill-rule="nonzero"></path>
    </g>
</svg>