<?xml version="1.0" encoding="UTF-8"?>
<svg width="14px" height="14px" viewBox="0 0 14 14" version="1.1" xmlns="http://www.w3.org/2000/svg" xmlns:xlink="http://www.w3.org/1999/xlink">
    <!-- Generator: Sketch 51 (57462) - http://www.bohemiancoding.com/sketch -->
    <title>ㄊ</title>
    <desc>Created with Sketch.</desc>
    <defs></defs>
    <g id="ㄊ" stroke="none" stroke-width="1" fill="none" fill-rule="evenodd">
        <rect id="Rectangle-2" fill="#000000" x="0" y="0" width="14" height="14"></rect>
        <path d="M10,9 L8,9 C6.8954305,9 6,8.1045695 6,7 L12,7 L12,9 L12,12 L10,12 L10,9 Z M10,4 L4,4 L4,12 L2,12 L2,4 C2,2.8954305 2.8954305,2 4,2 L10,2 C11.1045695,2 12,2.8954305 12,4 L12,6 L10,6 L10,4 Z M2,13 L12,13 L12,15 L2,15 L2,13 Z" id="Combined-Shape" fill="#FFFFFF"></path>
    </g>
</svg>