<?xml version="1.0" encoding="UTF-8"?>
<svg width="14px" height="14px" viewBox="0 0 14 14" version="1.1" xmlns="http://www.w3.org/2000/svg" xmlns:xlink="http://www.w3.org/1999/xlink">
    <!-- Generator: Sketch 51 (57462) - http://www.bohemiancoding.com/sketch -->
    <title>ㄊ</title>
    <desc>Created with Sketch.</desc>
    <defs></defs>
    <g id="ㄊ" stroke="none" stroke-width="1" fill="none" fill-rule="evenodd">
        <g id="facebook" fill="#000000" fill-rule="nonzero">
            <path d="M12.25,0 L1.75,0 C0.784875,0 0,0.784875 0,1.75 L0,12.25 C0,13.215125 0.784875,14 1.75,14 L12.25,14 C13.215125,14 14,13.215125 14,12.25 L14,1.75 C14,0.784875 13.215125,0 12.25,0 Z" id="Combined-Shape"></path>
        </g>
        <g id="Group" transform="translate(2.000000, 3.000000)" fill="#FFFFFE">
            <path d="M4.30845272,5.2525788 L4.30845272,5.52071633 C4.22547278,6.26186246 3.59702006,6.83810888 2.83369628,6.83810888 C2.57229226,6.83810888 2.32679083,6.77031519 2.11346705,6.65166189 L1.83475645,7.02074499 C2.1334384,7.20045845 2.47616046,7.2965616 2.83369628,7.2965616 C3.82409742,7.2965616 4.65395415,6.55507163 4.76406877,5.57174785 L4.76406877,4.74982808 C4.69065903,4.65856734 4.62237822,4.56303725 4.55965616,4.46361032 C4.48151862,4.54633238 4.39762178,4.62352436 4.30845272,4.6943553 C3.9030659,5.01636103 3.39048711,5.20899713 2.83372493,5.20899713 C1.52398281,5.20899713 0.458452722,4.1434384 0.458452722,2.83372493 C0.458452722,1.52401146 1.52398281,0.458452722 2.83372493,0.458452722 C4.1434384,0.458452722 5.20899713,1.52401146 5.20899713,2.83372493 C5.20899713,3.90498567 6.08051576,4.7765043 7.1517765,4.7765043 C8.2230086,4.7765043 9.09455587,3.90498567 9.09455587,2.83372493 C9.09455587,1.76246418 8.2230086,0.890945559 7.1517765,0.890945559 C6.54292264,0.890945559 5.99882521,1.17269341 5.64234957,1.61240688 C5.71997135,1.79025788 5.78120344,1.97679083 5.82406877,2.17020057 C6.06773639,1.68361032 6.57057307,1.34939828 7.1517765,1.34939828 C7.97154728,1.34939828 8.63610315,2.01395415 8.63610315,2.83372493 C8.63610315,3.6534957 7.97154728,4.31805158 7.1517765,4.31805158 C6.33200573,4.31805158 5.66744986,3.6534957 5.66744986,2.83372493 C5.66744986,1.27120344 4.39624642,0 2.83372493,0 C1.27120344,0 0,1.27120344 0,2.83372493 C0,4.39624642 1.27120344,5.66744986 2.83372493,5.66744986 C3.37355301,5.66744986 3.87856734,5.5156447 4.30845272,5.2525788" id="Fill-4"></path>
            <path d="M7.1517765,0 C6.37060172,0 5.66226361,0.317707736 5.14916905,0.830716332 C5.25057307,0.947765043 5.34309456,1.07266476 5.42604585,1.20418338 C5.85936963,0.745530086 6.47252149,0.458452722 7.1517765,0.458452722 C8.46151862,0.458452722 9.52704871,1.52401146 9.52704871,2.83372493 C9.52704871,4.1434384 8.46151862,5.20899713 7.1517765,5.20899713 C5.84206304,5.20899713 4.7765043,4.1434384 4.7765043,2.83372493 C4.7765043,1.76246418 3.90498567,0.890945559 2.83372493,0.890945559 C1.76249284,0.890945559 0.890945559,1.76246418 0.890945559,2.83372493 C0.890945559,3.90498567 1.76249284,4.7765043 2.83372493,4.7765043 C3.4425788,4.7765043 3.98667622,4.49475645 4.34315186,4.05504298 C4.26550143,3.87719198 4.20429799,3.69065903 4.16140401,3.49727794 C3.91776504,3.98383954 3.41492837,4.31805158 2.83372493,4.31805158 C2.01395415,4.31805158 1.34939828,3.6534957 1.34939828,2.83372493 C1.34939828,2.01395415 2.01395415,1.34939828 2.83372493,1.34939828 C3.6534957,1.34939828 4.31805158,2.01395415 4.31805158,2.83372493 C4.31805158,4.39624642 5.58922636,5.6674212 7.1517765,5.66744986 C8.71429799,5.66744986 9.98550143,4.39624642 9.98550143,2.83372493 C9.98550143,1.27120344 8.71429799,0 7.1517765,0" id="Fill-6"></path>
            <path d="M5.20899713,5.35381089 C5.20899713,6.66352436 4.1434384,7.72905444 2.83369628,7.72905444 C2.38131805,7.72905444 1.94799427,7.6026361 1.57352436,7.36673352 L1.29670487,7.73338109 C1.73974212,8.02054441 2.26759312,8.18750716 2.83369628,8.18750716 C4.34389685,8.18750716 5.58189112,7 5.66309456,5.50971347 C5.50232092,5.41991404 5.35031519,5.31618911 5.20899713,5.19994269 L5.20899713,5.35381089" id="Fill-5"></path>
        </g>
    </g>
</svg>